<?xml version="1.0" standalone="no"?><!DOCTYPE svg PUBLIC "-//W3C//DTD SVG 1.1//EN" "http://www.w3.org/Graphics/SVG/1.1/DTD/svg11.dtd"><svg t="1714152969624" class="icon" viewBox="0 0 1172 1024" version="1.1" xmlns="http://www.w3.org/2000/svg" p-id="6423" xmlns:xlink="http://www.w3.org/1999/xlink" width="228.90625" height="200"><path d="M859.07 656.264V510.4h313.525C1158.031 228.49 906.795-10.41 613.715 0.35c-225.368 8.273-430.32 138.21-512.287 334.174-0.007-0.001-0.014 0.313-0.02 0.913C45.372 335.63 0 385.401 0 446.776v169.24C0 677.51 45.547 727.36 101.73 727.36h0.114c0.258 154.929 0.524 296.641 0.524 296.641h277.715l173.632-183.611h527.95l-0.568-0.307c37.15-54.87 64.446-116.982 79.337-183.818H859.07zM357.798 968.987H159.207v-72.132h264.332l-65.741 72.132zM550.612 642.51H98.647V415.528h451.966V642.51z" fill="#515151" p-id="6424"></path></svg>